<?xml version="1.0" encoding="UTF-8"?>
<svg version="1.1" xmlns="http://www.w3.org/2000/svg" width="500" height="500">
<path d="M0 0 C2.51596489 1.40882649 4.86160092 2.8410422 7.25 4.4375 C13.93226112 8.76913402 20.75260584 12.70987806 27.75195312 16.50488281 C32.45397145 19.07430299 36.86833785 21.79947296 41.078125 25.13671875 C44.1243721 26.50505332 45.79456422 25.92808548 49 25 C52.27296784 23.42645777 55.37746462 21.60106991 58.5 19.75 C59.40693604 19.22365967 60.31387207 18.69731934 61.24829102 18.1550293 C66.21269477 15.26469227 71.14133713 12.31735889 76.05859375 9.34765625 C77.04214844 8.75694336 78.02570313 8.16623047 79.0390625 7.55761719 C80.93657303 6.41514707 82.82875584 5.2637697 84.71484375 4.10253906 C93.6533876 -1.28785513 93.6533876 -1.28785513 98 -1 C101.29064253 0.45774008 104.2371759 2.35413521 107.25 4.3125 C109.03738523 5.432369 110.82648422 6.54950686 112.6171875 7.6640625 C113.96635254 8.50952637 113.96635254 8.50952637 115.34277344 9.37207031 C119.27900601 11.78357332 123.31779719 13.98792308 127.375 16.1875 C133.03304631 19.29092252 138.60478255 22.49227162 144.0625 25.9375 C144.65272949 26.30319092 145.24295898 26.66888184 145.85107422 27.0456543 C149.88000456 29.64001369 149.88000456 29.64001369 151 33 C151.07150278 34.76340373 151.08399881 36.52946762 151.0625 38.29418945 C151.04884399 39.91651237 151.04884399 39.91651237 151.03491211 41.5716095 C151.02339111 42.74036118 151.01187012 43.90911285 151 45.11328125 C150.99884168 47.58268236 151.00022316 50.05208574 151.00390625 52.52148438 C151.00832858 56.41976552 150.99995865 60.31564659 150.94873047 64.21362305 C150.90349068 67.97304948 150.9153832 71.72872394 150.9375 75.48828125 C150.89592773 77.23229973 150.89592773 77.23229973 150.85351562 79.0115509 C150.84133453 85.08724689 150.84133453 85.08724689 153.94451904 90.03527832 C156.23953703 91.58896418 158.49260137 92.82637339 161 94 C162.23597986 94.6819954 163.47048368 95.36667636 164.703125 96.0546875 C165.87359375 96.65539062 167.0440625 97.25609375 168.25 97.875 C174.33298647 101.04599206 180.17221566 104.45933914 185.9765625 108.12109375 C189.60317132 110.37483902 193.32025463 112.44681552 197.07421875 114.48046875 C199.66466302 116.52445013 200.06250156 117.79990976 201 121 C201.28152226 124.45045043 201.25624379 127.88749755 201.23046875 131.34765625 C201.23001053 132.35533554 201.22955231 133.36301483 201.2290802 134.40122986 C201.2260625 136.53369321 201.21819063 138.66615444 201.20581055 140.79858398 C201.18770133 144.02661155 201.1853001 147.25434909 201.18554688 150.48242188 C201.17938919 155.48280185 201.12705728 160.4807159 201.0380249 165.48028564 C201.00543102 167.64011408 201.00466133 169.8003821 201.01025391 171.96044922 C200.82633348 178.8420498 200.82633348 178.8420498 198.65917969 181.87890625 C196.86779786 183.53280283 195.09638425 184.75899322 193 186 C192.37077637 186.38816895 191.74155273 186.77633789 191.09326172 187.17626953 C189.06925739 188.36521296 187.01442549 189.46882606 184.9375 190.5625 C177.59221927 194.53344759 170.36718972 198.67431683 163.1875 202.9375 C162.25091553 203.4931665 161.31433105 204.04883301 160.34936523 204.62133789 C155.33166384 207.59431217 155.33166384 207.59431217 150.37890625 210.6730957 C148 212 148 212 145.26953125 212.015625 C140.65884661 210.58339321 136.80276158 208.24192915 132.6875 205.75 C131.0668695 204.78567937 129.44577713 203.82213452 127.82421875 202.859375 C127.02193848 202.38000488 126.2196582 201.90063477 125.39306641 201.40673828 C123.09588058 200.05636237 120.7773094 198.75855308 118.44140625 197.4765625 C115.43511757 195.82246171 112.4939277 194.09791318 109.578125 192.2890625 C108.86269531 191.84949219 108.14726562 191.40992188 107.41015625 190.95703125 C105.94822645 190.05555193 104.49261484 189.14375881 103.04296875 188.22265625 C98.98906129 185.70202342 98.98906129 185.70202342 94.37890625 184.97265625 C91.26961072 186.31542263 88.53367056 187.97527134 85.6875 189.8125 C82.25754217 192.01776842 78.92079826 194.07950071 75.24609375 195.84375 C69.0612981 198.86305816 63.36778866 202.74640257 57.6015625 206.48632812 C48.54338725 212.22622675 48.54338725 212.22622675 44 212 C41.26597415 210.80220827 38.95596618 209.60829817 36.4375 208.0625 C35.73351074 207.64863037 35.02952148 207.23476074 34.30419922 206.80834961 C30.04084912 204.2872571 25.83429151 201.67258165 21.625 199.0625 C16.28577933 195.75312107 10.89214529 192.55327108 5.4375 189.4375 C4.66293457 188.98318604 3.88836914 188.52887207 3.09033203 188.06079102 C2.3579834 187.64756592 1.62563477 187.23434082 0.87109375 186.80859375 C0.22068115 186.43532959 -0.42973145 186.06206543 -1.09985352 185.67749023 C-3.53763274 184.80830903 -4.589767 185.10483641 -7 186 C-8.5450726 186.73478012 -10.06725798 187.51863813 -11.5703125 188.3359375 C-12.45847656 188.81812744 -13.34664063 189.30031738 -14.26171875 189.79711914 C-15.20660156 190.31781982 -16.15148437 190.83852051 -17.125 191.375 C-18.09824219 191.90794678 -19.07148438 192.44089355 -20.07421875 192.98999023 C-27.23472899 196.94425831 -34.25630445 201.09094155 -41.18798828 205.43310547 C-51.85713754 212.10542922 -51.85713754 212.10542922 -55.28393555 211.78930664 C-58.64314928 210.81309648 -61.26572111 209.2954729 -64.26953125 207.5 C-64.86343658 207.14814636 -65.45734192 206.79629272 -66.06924438 206.43377686 C-67.98761494 205.29568356 -69.90002581 204.14796866 -71.8125 203 C-74.43319839 201.43984501 -77.0565061 199.88410046 -79.6796875 198.328125 C-80.31923874 197.94779114 -80.95878998 197.56745728 -81.61772156 197.17559814 C-87.64749529 193.59665079 -93.76603092 190.19468272 -99.93359375 186.859375 C-101.45146484 185.93898438 -101.45146484 185.93898438 -103 185 C-104.03898437 184.42427246 -105.07796875 183.84854492 -106.1484375 183.25537109 C-108.45138045 181.2861121 -108.96321596 180.19074596 -109.54493713 177.17419434 C-109.74661294 173.45975692 -109.75500391 169.7715244 -109.69140625 166.0546875 C-109.68782695 164.67896921 -109.68647219 163.30324349 -109.6872406 161.92752075 C-109.68255815 159.05065716 -109.65778563 156.17492008 -109.61743164 153.29833984 C-109.56636419 149.61149383 -109.55499183 145.92588017 -109.55726719 142.23872185 C-109.55645157 139.40076946 -109.54000184 136.56308636 -109.51826286 133.72522354 C-109.50872085 132.36567343 -109.50280483 131.00609286 -109.50058174 129.64651108 C-109.49407726 127.74844123 -109.46544516 125.85048605 -109.43579102 123.95263672 C-109.42435562 122.87295624 -109.41292023 121.79327576 -109.40113831 120.68087769 C-108.94527365 117.63425418 -108.41935289 116.82086858 -106 115 C-103.85175017 113.61403236 -101.70355598 112.29155104 -99.5 111 C-98.84999023 110.61481201 -98.19998047 110.22962402 -97.53027344 109.83276367 C-95.35720149 108.5487918 -93.17926935 107.27342284 -91 106 C-90.21302734 105.53932129 -89.42605469 105.07864258 -88.61523438 104.60400391 C-80.10002926 99.62659085 -71.59420213 94.66191711 -62.8359375 90.12109375 C-60.84227223 89.12645354 -60.84227223 89.12645354 -60 87 C-59.90089262 85.23408037 -59.8644447 83.4644881 -59.8581543 81.69580078 C-59.85111984 80.5877005 -59.84408539 79.47960022 -59.83683777 78.33792114 C-59.83267349 77.13586029 -59.82850922 75.93379944 -59.82421875 74.6953125 C-59.80102397 72.16796039 -59.77690678 69.64061661 -59.75195312 67.11328125 C-59.71679146 63.11468644 -59.685788 59.11640189 -59.67407227 55.11767578 C-59.65863626 51.26817415 -59.61845395 47.41957659 -59.57421875 43.5703125 C-59.57612717 42.37230011 -59.57803558 41.17428772 -59.58000183 39.93997192 C-59.56351089 38.82556732 -59.54701996 37.71116272 -59.5300293 36.56298828 C-59.52416306 35.58306915 -59.51829681 34.60315002 -59.51225281 33.59353638 C-58.85755613 30.27880659 -57.5663393 29.12589682 -55 27 C-52.79272461 25.53955078 -52.79272461 25.53955078 -50.40234375 24.1953125 C-49.52400879 23.69749268 -48.64567383 23.19967285 -47.74072266 22.68676758 C-46.81565918 22.17138428 -45.8905957 21.65600098 -44.9375 21.125 C-43.98665527 20.58834717 -43.03581055 20.05169434 -42.05615234 19.4987793 C-36.63367795 16.44555914 -31.1797383 13.45546714 -25.69921875 10.5078125 C-20.75690375 7.74698241 -15.9305081 4.78976371 -11.08984375 1.85546875 C-6.57941797 -0.85306759 -5.1781743 -1.30669891 0 0 Z M90.80859375 12.2734375 C89.95402588 12.76392578 89.09945801 13.25441406 88.21899414 13.75976562 C86.84215454 14.55930664 86.84215454 14.55930664 85.4375 15.375 C84.49962646 15.91576172 83.56175293 16.45652344 82.59545898 17.01367188 C79.72711422 18.6703443 76.86294444 20.33401529 74 22 C73.15598633 22.49016602 72.31197266 22.98033203 71.44238281 23.48535156 C69.14700794 24.82004537 66.85399155 26.15865162 64.5625 27.5 C63.88437256 27.89622559 63.20624512 28.29245117 62.50756836 28.70068359 C61.54669312 29.26650146 61.54669312 29.26650146 60.56640625 29.84375 C60.01927979 30.16537109 59.47215332 30.48699219 58.90844727 30.81835938 C57.96376587 31.40327148 57.96376587 31.40327148 57 32 C55.95577881 32.46688232 54.91155762 32.93376465 53.83569336 33.41479492 C50.61183052 36.35388089 50.52958951 36.96344065 50.16015625 41.11645508 C50.0934708 43.25002013 50.06328541 45.38492445 50.0625 47.51953125 C50.04727295 48.65146408 50.0320459 49.78339691 50.01635742 50.94963074 C49.99474973 53.34434186 49.98905175 55.7392415 49.99804688 58.1340332 C49.99998866 61.79114302 49.91686624 65.43981042 49.828125 69.09570312 C49.81770778 71.42446169 49.81233467 73.75324939 49.8125 76.08203125 C49.77970947 77.17079056 49.74691895 78.25954987 49.71313477 79.38130188 C49.79680067 84.00110378 49.86753743 86.84839485 53.19807434 90.23522949 C55.73109075 92.03274534 58.24833103 93.56419661 61 95 C62.01449219 95.55429688 63.02898437 96.10859375 64.07421875 96.6796875 C64.93660156 97.07414062 65.79898438 97.46859375 66.6875 97.875 C71.57692331 100.22799543 76.23291126 102.8254458 80.875 105.625 C81.80252075 106.18356689 81.80252075 106.18356689 82.7487793 106.75341797 C83.344729 107.11580566 83.94067871 107.47819336 84.5546875 107.8515625 C85.42432129 108.37991699 85.42432129 108.37991699 86.31152344 108.91894531 C87.97042976 109.98106752 89.55367853 111.15847851 91.1328125 112.3359375 C93.82426986 114.23911883 93.82426986 114.23911883 96.609375 113.90234375 C99.04139332 112.98437605 101.05568609 111.95565254 103.25 110.5625 C107.88259054 107.68781212 112.54900832 104.88580815 117.25 102.125 C117.97348633 101.69840088 118.69697266 101.27180176 119.44238281 100.83227539 C123.00129438 98.73858874 126.57054638 96.66840251 130.171875 94.6484375 C130.81866211 94.28476074 131.46544922 93.92108398 132.13183594 93.54638672 C133.8976764 92.55731298 135.66747236 91.57531078 137.4375 90.59375 C140.09153794 89.25302582 140.09153794 89.25302582 141 87 C141.09502103 85.44313717 141.12794652 83.88226897 141.12939453 82.32250977 C141.13412277 80.8657357 141.13412277 80.8657357 141.13894653 79.37953186 C141.1369223 78.32745041 141.13489807 77.27536896 141.1328125 76.19140625 C141.13424759 74.57491432 141.13424759 74.57491432 141.13571167 72.92576599 C141.13639309 70.64346254 141.13454144 68.36115716 141.13037109 66.07885742 C141.12502753 62.58052216 141.13031471 59.0823156 141.13671875 55.58398438 C141.13605786 53.36979138 141.13477647 51.15559847 141.1328125 48.94140625 C141.13584885 47.36632042 141.13584885 47.36632042 141.13894653 45.75941467 C141.13579437 44.7850798 141.13264221 43.81074493 141.12939453 42.80688477 C141.12859894 41.94909927 141.12780334 41.09131378 141.12698364 40.20753479 C141.08627247 37.82344242 141.08627247 37.82344242 140 35 C138.46551168 33.82786125 138.46551168 33.82786125 136.52734375 32.87109375 C135.80023193 32.48074951 135.07312012 32.09040527 134.32397461 31.68823242 C133.53643799 31.27549072 132.74890137 30.86274902 131.9375 30.4375 C125.6364202 27.04548273 119.47667391 23.52744137 113.4375 19.6875 C102.64787819 11.35803768 102.64787819 11.35803768 90.80859375 12.2734375 Z M-14.75 14.75 C-15.62325928 15.26844482 -16.49651855 15.78688965 -17.39624023 16.32104492 C-19.95245005 17.84826298 -22.4777674 19.41747331 -25 21 C-26.26572802 21.77409942 -27.53251443 22.54647339 -28.80078125 23.31640625 C-30.80634663 24.54376422 -32.80331461 25.78547346 -34.78515625 27.05078125 C-37.71928911 28.82979984 -40.68626386 30.48442132 -43.70092773 32.12182617 C-44.69285629 32.66111252 -45.68478485 33.20039886 -46.70677185 33.75602722 C-47.46353714 34.16653824 -48.22030243 34.57704926 -49 35 C-49.2540687 42.41909419 -49.42887671 49.83706376 -49.54931641 57.25952148 C-49.59953121 59.78273432 -49.66772018 62.30565722 -49.75439453 64.82788086 C-49.87606826 68.46019956 -49.93248221 72.08866809 -49.9765625 75.72265625 C-50.05398178 77.40742821 -50.05398178 77.40742821 -50.13296509 79.12623596 C-50.15722767 85.29834155 -50.15722767 85.29834155 -46.82147217 90.25386047 C-44.28279645 92.0558842 -41.76483366 93.57429459 -39 95 C-37.9275 95.58910156 -36.855 96.17820312 -35.75 96.78515625 C-34.8425 97.20667969 -33.935 97.62820312 -33 98.0625 C-26.40039705 101.24851522 -20.16788679 104.84241224 -14.109375 108.96875 C-13.14515625 109.6184375 -12.1809375 110.268125 -11.1875 110.9375 C-9.87845703 111.84822266 -9.87845703 111.84822266 -8.54296875 112.77734375 C-6.08349629 114.21135189 -6.08349629 114.21135189 -3.43359375 113.859375 C-0.88363944 112.95890959 0.93853162 111.8962347 3.125 110.3125 C8.21899017 106.78908755 13.54338203 103.91966097 19 101 C22.5257321 99.09225063 26.04477873 97.17247195 29.5625 95.25 C30.45622314 94.76571533 31.34994629 94.28143066 32.27075195 93.7824707 C33.11081787 93.32316162 33.95088379 92.86385254 34.81640625 92.390625 C35.57381104 91.97844727 36.33121582 91.56626953 37.11157227 91.14160156 C39.14335937 90.0161826 39.14335937 90.0161826 41 88 C41.31979106 85.76546588 41.31979106 85.76546588 41.29052734 83.15478516 C41.30328705 82.14678864 41.31604675 81.13879211 41.32919312 80.10025024 C41.33141876 79.00755829 41.33364441 77.91486633 41.3359375 76.7890625 C41.3425943 75.6693808 41.3492511 74.5496991 41.35610962 73.39608765 C41.36624981 71.02384081 41.37092622 68.65156536 41.37060547 66.27929688 C41.37497396 62.64665726 41.41126805 59.01523659 41.44921875 55.3828125 C41.45508747 53.08073333 41.45905649 50.77864838 41.4609375 48.4765625 C41.47530853 47.38791901 41.48967957 46.29927551 41.50448608 45.17764282 C41.4952562 43.65619156 41.4952562 43.65619156 41.48583984 42.10400391 C41.48868988 41.21290924 41.49153992 40.32181458 41.49447632 39.40371704 C40.84120628 36.22808202 39.44602619 35.05543909 37 33 C34.92768471 31.62965187 34.92768471 31.62965187 32.69140625 30.484375 C31.86809814 30.0416626 31.04479004 29.5989502 30.1965332 29.14282227 C29.32730225 28.68319092 28.45807129 28.22355957 27.5625 27.75 C20.5442429 23.97628803 13.71032676 20.08654726 7.01953125 15.75390625 C6.02308594 15.17511719 5.02664062 14.59632813 4 14 C3.33371582 13.5786377 2.66743164 13.15727539 1.98095703 12.72314453 C-4.89762698 8.89836929 -8.40963491 10.71342641 -14.75 14.75 Z M-60 99.3125 C-65.0332073 102.42514136 -70.12593839 105.41549146 -75.25 108.375 C-76.06710449 108.8498584 -76.88420898 109.3247168 -77.72607422 109.81396484 C-81.56166502 112.038562 -85.40560223 114.23603113 -89.3046875 116.34765625 C-90.27873535 116.88156982 -90.27873535 116.88156982 -91.27246094 117.42626953 C-93.01228479 118.37597306 -94.75980624 119.31153613 -96.5078125 120.24609375 C-99.09321615 121.70495593 -99.09321615 121.70495593 -99.6365509 123.8110199 C-100.87770531 131.28624085 -100.57999778 139.07682486 -100.63696289 146.63256836 C-100.67048085 148.90741773 -100.73785695 151.18203572 -100.84008789 153.45483398 C-101.80780367 165.93182578 -101.80780367 165.93182578 -97.31359863 177.05929565 C-93.05648605 180.62672902 -88.27488159 182.92409077 -83.17996216 185.06326294 C-80.4164394 186.25075795 -77.91545247 187.74801745 -75.3671875 189.33984375 C-73.87107419 190.20794328 -72.37375531 191.07396983 -70.875 191.9375 C-70.11703125 192.37900391 -69.3590625 192.82050781 -68.578125 193.27539062 C-67.10033441 194.12981766 -65.61620846 194.97341171 -64.125 195.80419922 C-62.69972118 196.60624605 -61.29296401 197.44206238 -59.90625 198.30908203 C-57.9343347 199.46456018 -56.19971231 200.37814401 -54 201 C-50.50015055 200.18679926 -50.50015055 200.18679926 -47.25 198 C-46.31377808 197.44916748 -46.31377808 197.44916748 -45.35864258 196.88720703 C-43.97933886 196.06970542 -42.60898493 195.23696892 -41.24658203 194.39160156 C-38.82712585 192.89291647 -36.38370711 191.44017077 -33.93359375 189.9921875 C-29.79613828 187.53945362 -25.66241305 185.08258434 -21.58752441 182.52685547 C-19 181 -19 181 -16.39178467 179.81201172 C-11.10078173 177.27551038 -11.10078173 177.27551038 -8.03572083 172.51150513 C-7.62353013 169.40959716 -7.53506385 166.44951107 -7.56640625 163.3203125 C-7.54972397 162.19358124 -7.53304169 161.06684998 -7.51585388 159.90597534 C-7.49594239 157.52740103 -7.50172705 155.14849092 -7.53149414 152.77001953 C-7.56238369 149.13867309 -7.47091197 145.52429381 -7.36914062 141.89453125 C-6.85623996 131.10678453 -6.85623996 131.10678453 -10.20526123 121.17175293 C-13.58528131 117.93603699 -17.6531828 116.49971891 -22 115 C-23.60273773 114.13936443 -25.18939993 113.24737392 -26.75 112.3125 C-28.16525217 111.5390727 -29.58190807 110.76820814 -31 110 C-37.65898834 106.35981932 -44.12260109 102.51719521 -50.49609375 98.3984375 C-54.50464004 96.15965502 -56.3675542 97.00978882 -60 99.3125 Z M37.125 101 C35.77688418 101.83339565 34.42790583 102.66539748 33.078125 103.49609375 C32.39685547 103.91745605 31.71558594 104.33881836 31.01367188 104.77294922 C28.00618466 106.60559116 24.94390365 108.33540199 21.875 110.0625 C10.83977989 115.7139086 10.83977989 115.7139086 1 123 C0.83894065 124.58207035 0.74566703 126.17111153 0.68017578 127.76000977 C0.63829132 128.7751918 0.59640686 129.79037384 0.55325317 130.83631897 C0.40295627 135.50795206 0.295604 140.17952624 0.21044922 144.8527832 C0.1537553 147.31410932 0.07195697 149.77499267 -0.03564453 152.23461914 C-1.19733606 164.9430718 -1.19733606 164.9430718 2.13787842 176.81622314 C5.49200928 180.0880777 9.67099566 181.45645915 14 183 C15.97106717 184.11719309 17.91853469 185.27739835 19.8359375 186.484375 C21.68156449 187.57414914 23.52791066 188.66270628 25.375 189.75 C26.30699219 190.30042969 27.23898438 190.85085938 28.19921875 191.41796875 C29.99469206 192.47696786 31.79367723 193.53004299 33.59667969 194.57617188 C35.07732064 195.4533659 36.54125615 196.36048034 37.97363281 197.31445312 C40.84153103 199.17738868 42.80432697 199.99222023 46.2421875 200.12890625 C51.6675235 198.49904959 56.25774846 195.79839144 61.125 192.9375 C62.14384277 192.34984863 63.16268555 191.76219727 64.21240234 191.15673828 C71.55753399 186.90158724 78.81301173 182.51689975 86 178 C86.86044922 177.70859131 87.72089844 177.41718262 88.60742188 177.11694336 C91.51567565 174.54373229 91.42372265 173.7478942 91.71044922 169.98120117 C91.77066909 167.83573879 91.79996529 165.68927092 91.8046875 163.54296875 C91.81895782 162.4072493 91.83322815 161.27152985 91.84793091 160.10139465 C91.86887651 157.6964996 91.87639681 155.29145606 91.87158203 152.88647461 C91.87497901 149.21022088 91.95281069 145.54045976 92.03515625 141.86523438 C92.04623437 139.52866302 92.05288946 137.19206567 92.0546875 134.85546875 C92.0854538 133.7584111 92.11622009 132.66135345 92.1479187 131.53105164 C92.1280387 125.73490391 92.1280387 125.73490391 89.11061096 121.0357666 C86.80519076 119.47049382 84.50988254 118.20533166 82 117 C81.05922607 116.45359863 80.11845215 115.90719727 79.14916992 115.34423828 C77.95191284 114.71364502 77.95191284 114.71364502 76.73046875 114.0703125 C75.37574463 113.34763184 75.37574463 113.34763184 73.99365234 112.61035156 C73.06762207 112.12018555 72.1415918 111.63001953 71.1875 111.125 C63.88806269 107.22107512 56.93503767 103.21370703 50.2421875 98.328125 C45.11539979 95.29135179 41.52411165 98.2086253 37.125 101 Z M140.3046875 99.0546875 C139.24374878 99.72250244 139.24374878 99.72250244 138.16137695 100.40380859 C137.40687256 100.88930176 136.65236816 101.37479492 135.875 101.875 C128.74465458 106.36060625 121.52390555 110.57523715 114.10302734 114.56201172 C113.40516113 114.94115723 112.70729492 115.32030273 111.98828125 115.7109375 C111.38540283 116.03368652 110.78252441 116.35643555 110.16137695 116.68896484 C109.44812256 117.12160645 108.73486816 117.55424805 108 118 C107.13478477 118.42575317 107.13478477 118.42575317 106.25209045 118.86010742 C103.18811769 120.60254185 101.36514127 121.93521932 100.19761658 125.33981323 C99.72023142 128.32624401 99.48314356 131.24483113 99.33203125 134.265625 C99.26465256 135.36821152 99.19727386 136.47079803 99.12785339 137.60679626 C98.95483891 141.15608663 98.86696387 144.69698212 98.8125 148.25 C98.79018311 149.44428619 98.76786621 150.63857239 98.74487305 151.86904907 C98.2592795 167.33411796 98.2592795 167.33411796 105.04759216 180.53285217 C111.04500464 185.50577156 118.25814046 188.23500577 125.56445312 190.70800781 C129.53003052 192.19932643 132.50495898 194.20482796 135.87866211 196.7109375 C139.24400924 199.14153916 142.59174197 201.33977446 146.93115234 200.72753906 C151.35513421 199.33369666 155.10398862 196.9574116 158.92626953 194.37744141 C161.76254795 192.49349004 164.70978844 190.83113072 167.66577148 189.14379883 C170.51029231 187.51014044 173.31971115 185.82138697 176.12890625 184.12792969 C177.81171702 183.11350044 179.49931629 182.10702486 181.1875 181.1015625 C184.50531876 179.12437399 187.78586352 177.14275765 191 175 C191.4995523 172.74779364 191.4995523 172.74779364 191.48339844 170.09472656 C191.51222107 169.07316467 191.5410437 168.05160278 191.57073975 166.99908447 C191.58348938 165.89079285 191.59623901 164.78250122 191.609375 163.640625 C191.62647522 162.5034906 191.64357544 161.3663562 191.66119385 160.19476318 C191.68957445 157.78389892 191.70915802 155.37291773 191.72070312 152.96191406 C191.74978517 149.27721912 191.84277267 145.59757435 191.9375 141.9140625 C191.95709445 139.57294652 191.97284418 137.23179458 191.984375 134.890625 C192.02141541 133.7904303 192.05845581 132.6902356 192.09661865 131.55670166 C192.11880344 125.73927034 192.11880344 125.73927034 189.09721375 121.02461243 C186.79528622 119.46420371 184.50601348 118.20010985 182 117 C181.13028564 116.48912842 180.26057129 115.97825684 179.36450195 115.4519043 C178.66284912 115.07976807 177.96119629 114.70763184 177.23828125 114.32421875 C176.43583984 113.89278564 175.63339844 113.46135254 174.80664062 113.0168457 C173.98357422 112.57816162 173.16050781 112.13947754 172.3125 111.6875 C164.85241185 107.6679123 157.73572712 103.37632234 150.75 98.58203125 C146.66851484 96.23401777 144.08883811 96.62490598 140.3046875 99.0546875 Z " fill="#E8EFF3" transform="translate(204,145)"/>
<path d="M0 0 C3.20493284 0.63521191 5.49260889 1.76457902 8.25 3.5 C11.92649816 5.76163589 15.63239487 7.93482473 19.40478516 10.03027344 C22.94839285 11.99923712 26.47477203 13.99836266 30 16 C30.87269531 16.4940332 31.74539063 16.98806641 32.64453125 17.49707031 C35.39759352 19.06538125 38.13731397 20.65502599 40.875 22.25 C41.74946777 22.74516113 42.62393555 23.24032227 43.52490234 23.75048828 C44.33910645 24.2298584 45.15331055 24.70922852 45.9921875 25.203125 C47.08055908 25.83202637 47.08055908 25.83202637 48.19091797 26.47363281 C50.65873098 28.5557876 51.19036016 29.84320677 52 33 C52.26957471 36.48685456 52.25625689 39.95743203 52.23046875 43.453125 C52.23001053 44.46791931 52.22955231 45.48271362 52.2290802 46.52825928 C52.22606326 48.67331106 52.21819369 50.81836075 52.20581055 52.96337891 C52.18764282 56.22436412 52.18530046 59.48506337 52.18554688 62.74609375 C52.18062754 64.83593992 52.17479742 66.92578419 52.16796875 69.015625 C52.16685593 69.98155579 52.1657431 70.94748657 52.16459656 71.94268799 C52.12483228 77.70276547 51.73349432 83.28569515 51 89 C44.125 88.125 44.125 88.125 43 87 C42.90653085 85.34261557 42.88255023 83.68125356 42.88647461 82.02124023 C42.88655014 80.96021591 42.88662567 79.89919159 42.88670349 78.80601501 C42.89186478 77.651866 42.89702606 76.49771698 42.90234375 75.30859375 C42.9037587 74.13361832 42.90517365 72.95864288 42.90663147 71.74806213 C42.91225008 67.97784936 42.92480574 64.20769496 42.9375 60.4375 C42.9425126 57.88867273 42.94707592 55.33984453 42.95117188 52.79101562 C42.96222556 46.52732367 42.97898179 40.26366601 43 34 C41.95344238 33.72687988 40.90688477 33.45375977 39.82861328 33.17236328 C36.53518416 32.22850271 33.72599879 30.95023294 30.7421875 29.2421875 C29.792229 28.70247314 28.84227051 28.16275879 27.86352539 27.60668945 C26.38420532 26.74950317 26.38420532 26.74950317 24.875 25.875 C23.85978271 25.29258545 22.84456543 24.7101709 21.79858398 24.11010742 C18.85937285 22.41739381 15.92807743 20.71188677 13 19 C12.22962402 18.55124512 11.45924805 18.10249023 10.66552734 17.64013672 C2.70263826 12.97640149 2.70263826 12.97640149 0 11 C0 10.34 0 9.68 0 9 C-1.32 8.34 -2.64 7.68 -4 7 C-2.68 4.69 -1.36 2.38 0 0 Z " fill="#EEF4F7" transform="translate(353,233)"/>
<path d="M0 0 C0.75 2.75 0.75 2.75 1 6 C-1.49304546 8.96872999 -4.23268257 10.93306364 -7.5625 12.875 C-8.43648438 13.38675781 -9.31046875 13.89851562 -10.2109375 14.42578125 C-13.86043729 16.48565298 -17.54909444 18.46652137 -21.26171875 20.41015625 C-22.16535156 20.93480469 -23.06898438 21.45945313 -24 22 C-24.58512863 22.31129349 -25.17025726 22.62258698 -25.77311707 22.9433136 C-29.54346234 25.18605055 -29.54346234 25.18605055 -31.61949158 28.8952179 C-31.82319625 31.18924366 -31.81312862 33.39389995 -31.7265625 35.6953125 C-31.72699554 36.52457245 -31.72742859 37.3538324 -31.72787476 38.20822144 C-31.7265383 40.84858956 -31.67988466 43.48524057 -31.625 46.125 C-31.58077148 48.77150026 -31.54694734 51.41632019 -31.54354858 54.0632019 C-31.54060681 55.70725096 -31.51378146 57.35146806 -31.46060181 58.99465942 C-31.45166016 61.25048828 -31.45166016 61.25048828 -32 65 C-34.52880859 67.02685547 -34.52880859 67.02685547 -37 68 C-39.45849609 67.09521484 -39.45849609 67.09521484 -42 65 C-42.79750858 61.84647813 -42.70010375 58.71493143 -42.6640625 55.4765625 C-42.66884613 54.53823578 -42.67362976 53.59990906 -42.67855835 52.63314819 C-42.68196143 50.6476677 -42.67273047 48.66213148 -42.65185547 46.67675781 C-42.62515489 43.64260131 -42.65155792 40.61216431 -42.68359375 37.578125 C-42.68028855 35.64842935 -42.67388004 33.71873601 -42.6640625 31.7890625 C-42.67418365 30.88370758 -42.68430481 29.97835266 -42.69473267 29.04556274 C-42.61108962 24.53017421 -42.48526803 22.61203333 -39.59716797 18.96948242 C-37.25288191 17.19176522 -35.17925704 15.87573215 -32.5 14.6875 C-28.30881925 12.71041027 -24.42405372 10.46641584 -20.5 8 C-4.83852975 -1.74450392 -4.83852975 -1.74450392 0 0 Z " fill="#EBF1F4" transform="translate(303,164)"/>
<path d="M0 0 C0.495 0.495 0.495 0.495 1 1 C0.953125 4.31640625 0.953125 4.31640625 0 8 C-2.703125 10.15234375 -2.703125 10.15234375 -6.25 11.9375 C-7.52603742 12.6029861 -8.80074735 13.27102289 -10.07421875 13.94140625 C-10.72567871 14.27672363 -11.37713867 14.61204102 -12.04833984 14.95751953 C-15.14744448 16.61290817 -18.09836798 18.49152311 -21.0625 20.375 C-24.65300323 22.6479289 -28.04169726 24.47293482 -32 26 C-31.98952637 27.13542236 -31.97905273 28.27084473 -31.96826172 29.44067383 C-31.93207945 33.65060273 -31.90910598 37.86051787 -31.89013672 42.07055664 C-31.88007509 43.89317129 -31.8664244 45.71576979 -31.84912109 47.53833008 C-31.82487979 50.15710435 -31.81351862 52.77566531 -31.8046875 55.39453125 C-31.79436493 56.21025101 -31.78404236 57.02597076 -31.77340698 57.8664093 C-31.7726314 61.77130756 -31.78349339 63.67524008 -34 67 C-37 67.375 -37 67.375 -40 67 C-42.02773588 63.95839618 -42.25606623 63.30990236 -42.30639648 59.88330078 C-42.32238388 59.05879425 -42.33837128 58.23428772 -42.35484314 57.38479614 C-42.36020584 56.49726654 -42.36556854 55.60973694 -42.37109375 54.6953125 C-42.38012222 53.77918182 -42.3891507 52.86305115 -42.39845276 51.91915894 C-42.41296085 49.9808072 -42.42184338 48.04240642 -42.42553711 46.10400391 C-42.43742887 43.1427123 -42.48660392 40.18350769 -42.53710938 37.22265625 C-42.54657427 35.33855183 -42.55380899 33.45443462 -42.55859375 31.5703125 C-42.57812607 30.68683136 -42.59765839 29.80335022 -42.61778259 28.89309692 C-42.58573454 24.51220537 -42.47234169 22.60841197 -39.7109375 19.05151367 C-37.52421066 17.39669868 -35.47802854 15.89598627 -33.06640625 14.60546875 C-31.97912231 14.01342651 -31.97912231 14.01342651 -30.86987305 13.40942383 C-30.10843994 13.00618896 -29.34700684 12.6029541 -28.5625 12.1875 C-26.95503955 11.32159148 -25.34827677 10.45438666 -23.7421875 9.5859375 C-22.54674316 8.94156738 -22.54674316 8.94156738 -21.32714844 8.28417969 C-19.14756056 7.08142767 -17.0115469 5.82923616 -14.8828125 4.5390625 C-14.25560303 4.16241455 -13.62839355 3.7857666 -12.98217773 3.39770508 C-11.28896541 2.37385407 -9.603211 1.33769852 -7.91796875 0.30078125 C-4.660733 -1.15123951 -3.31748793 -1.17333056 0 0 Z " fill="#ECF3F6" transform="translate(253,251)"/>
<path d="M0 0 C-0.109375 3.25390625 -0.109375 3.25390625 -1 7 C-3.703125 9.15234375 -3.703125 9.15234375 -7.25 10.9375 C-8.52469726 11.60306158 -9.79810556 12.27109676 -11.0703125 12.94140625 C-12.04726074 13.44438232 -12.04726074 13.44438232 -13.04394531 13.95751953 C-16.16113066 15.61882525 -19.13801786 17.49237201 -22.125 19.375 C-25.36761527 21.40466691 -28.56663269 23.31769586 -32 25 C-32.01981934 26.13542236 -32.03963867 27.27084473 -32.06005859 28.44067383 C-32.13609684 32.65086144 -32.22481686 36.86070263 -32.31738281 41.07055664 C-32.35567995 42.89307824 -32.39053155 44.71567563 -32.421875 46.53833008 C-32.46750979 49.15733941 -32.52550622 51.77582674 -32.5859375 54.39453125 C-32.60326431 55.61811089 -32.60326431 55.61811089 -32.62094116 56.8664093 C-32.72197274 60.73364504 -32.8077319 62.71159785 -35 66 C-37.3431213 65.74438677 -39.67843403 65.40729228 -42 65 C-43.12237281 62.75525437 -43.14877721 61.48809601 -43.19287109 58.99682617 C-43.20893402 58.17224411 -43.22499695 57.34766205 -43.24154663 56.49809265 C-43.28602528 52.72521801 -43.32706263 48.95251891 -43.35009766 45.17944336 C-43.36665551 43.19006653 -43.39394328 41.20074915 -43.43212891 39.21166992 C-43.48692264 36.34262245 -43.50877517 33.47496913 -43.5234375 30.60546875 C-43.54610687 29.71885056 -43.56877625 28.83223236 -43.59213257 27.91874695 C-43.57698674 23.48645043 -43.4826189 21.61462758 -40.66503906 18.02636719 C-37.67695278 15.75437047 -34.66240266 13.87687912 -31.375 12.0625 C-30.76543457 11.72259033 -30.15586914 11.38268066 -29.52783203 11.0324707 C-24.81463944 8.41273243 -20.06834613 5.85084012 -15.3046875 3.32421875 C-13.05369971 2.03085458 -11.06276419 0.57036242 -9 -1 C-5.43808007 -2.49370836 -3.41195449 -1.61120073 0 0 Z " fill="#EAF2F5" transform="translate(354,252)"/>
<path d="M0 0 C0.9375 2.625 0.9375 2.625 1 6 C-3.41930714 11.08220321 -9.17674645 13.88398348 -15.140625 16.84521484 C-16.40393623 17.48254601 -17.6520242 18.15073119 -18.88525391 18.84448242 C-21 20 -21 20 -23.67333984 21.1340332 C-26.9023803 22.79623362 -28.77170236 24.10791979 -31 27 C-32.7500987 33.20670036 -32.17217236 39.93450953 -32 46.3125 C-31.97165024 48.95551407 -31.95717894 51.59810349 -31.95068359 54.24125671 C-31.94202753 55.88074874 -31.91810134 57.52024537 -31.87744141 59.15925598 C-31.84470931 61.10632411 -31.9135543 63.05457644 -32 65 C-34 67 -34 67 -37 67.25 C-40 67 -40 67 -42 65 C-42.27415466 63.16069031 -42.27415466 63.16069031 -42.30639648 60.9050293 C-42.32238388 60.06042648 -42.33837128 59.21582367 -42.35484314 58.34562683 C-42.36020584 57.43106216 -42.36556854 56.5164975 -42.37109375 55.57421875 C-42.38012222 54.63447708 -42.3891507 53.69473541 -42.39845276 52.72651672 C-42.41297848 50.73510942 -42.42184774 48.74365413 -42.42553711 46.75219727 C-42.43741363 43.70962577 -42.48655907 40.66909503 -42.53710938 37.62695312 C-42.54657565 35.69271824 -42.55380971 33.75847088 -42.55859375 31.82421875 C-42.57812607 30.91572678 -42.59765839 30.0072348 -42.61778259 29.07121277 C-42.58568194 24.56033904 -42.49635799 22.63258404 -39.63110352 18.98095703 C-36.98717486 16.99034395 -34.50993298 15.55602722 -31.5 14.1875 C-26.89469045 11.99260493 -22.57338534 9.58465663 -18.25 6.875 C-4.72786855 -1.56216226 -4.72786855 -1.56216226 0 0 Z " fill="#F1F6F8" transform="translate(203,164)"/>
<path d="M0 0 C2.625 1.5 2.625 1.5 3.75 3.375 C3.56409858 6.53532409 1.94879351 7.43092247 -0.375 9.5 C-2.06799035 10.59948646 -3.80220273 11.63685005 -5.5625 12.625 C-6.6040625 13.22054688 -7.645625 13.81609375 -8.71875 14.4296875 C-9.93725713 15.12022041 -11.15602899 15.8102863 -12.375 16.5 C-15.44475551 18.23762313 -18.50559776 19.98987768 -21.5625 21.75 C-22.31748779 22.1742627 -23.07247559 22.59852539 -23.8503418 23.03564453 C-24.55328369 23.44153809 -25.25622559 23.84743164 -25.98046875 24.265625 C-26.61106201 24.62430664 -27.24165527 24.98298828 -27.89135742 25.35253906 C-29.69305387 26.52588095 -29.69305387 26.52588095 -30.375 29.5 C-30.51704707 32.29005344 -30.60831875 35.05978064 -30.65625 37.8515625 C-30.67465942 38.66619965 -30.69306885 39.48083679 -30.71203613 40.32015991 C-30.7907473 43.80705611 -30.85865776 47.29414223 -30.92724609 50.78125 C-30.978834 53.32562218 -31.03611908 55.86982122 -31.09375 58.4140625 C-31.10732544 59.20881989 -31.12090088 60.00357727 -31.1348877 60.82241821 C-31.26214811 66.38714811 -31.26214811 66.38714811 -32.375 67.5 C-35.875 67.1875 -35.875 67.1875 -39.375 66.5 C-41.01468141 63.22063718 -40.53810065 59.588705 -40.54296875 55.984375 C-40.54796135 54.71149628 -40.54796135 54.71149628 -40.55305481 53.41290283 C-40.55812351 51.6139785 -40.56046315 49.81504475 -40.56030273 48.01611328 C-40.56248022 45.2749051 -40.5806114 42.53410521 -40.59960938 39.79296875 C-40.60254518 38.04427221 -40.60452872 36.29557375 -40.60546875 34.546875 C-40.61265427 33.73103943 -40.61983978 32.91520386 -40.62724304 32.074646 C-40.60913881 27.52067639 -40.29726837 23.72139726 -38.375 19.5 C-36.08477015 17.74899633 -34.06394498 16.41993836 -31.5625 15.0625 C-30.89541016 14.68198486 -30.22832031 14.30146973 -29.54101562 13.90942383 C-27.49679264 12.75143448 -25.43919314 11.62194149 -23.375 10.5 C-22.75963379 10.16258789 -22.14426758 9.82517578 -21.51025391 9.47753906 C-18.74712891 7.96539626 -15.9737755 6.4773114 -13.18359375 5.015625 C-10.84195522 3.75198696 -8.65825481 2.39532592 -6.4375 0.9375 C-3.375 -0.5 -3.375 -0.5 0 0 Z " fill="#ECF3F5" transform="translate(151.375,250.5)"/>
<path d="M0 0 C-0.33 0.99 -0.66 1.98 -1 3 C-2.8125 3.5625 -2.8125 3.5625 -5 4 C-7.18398635 4.79996657 -7.18398635 4.79996657 -9 6 C-9.33 6.99 -9.66 7.98 -10 9 C-13.93798491 12.12722331 -17.04994912 12.46698593 -22 12 C-22.66 11.34 -23.32 10.68 -24 10 C-24.99 10 -25.98 10 -27 10 C-26.4375 8.0625 -26.4375 8.0625 -25 6 C-23.948125 5.87625 -22.89625 5.7525 -21.8125 5.625 C-17.74698691 4.95852244 -17.39050287 4.64911868 -14.75 1.875 C-10.3253472 -2.37752672 -5.62965717 -1.11982331 0 0 Z " fill="#F5F9FA" transform="translate(185,334)"/>
<path d="M0 0 C0.75 2.75 0.75 2.75 1 6 C-1.43467972 9.37109499 -4.10674077 10.70224692 -8 12 C-6.25 7.125 -6.25 7.125 -4 6 C-4 5.01 -4 4.02 -4 3 C-6.93443402 3.26656572 -6.93443402 3.26656572 -10 4 C-10.99 5.485 -10.99 5.485 -12 7 C-13.32 6.34 -14.64 5.68 -16 5 C-14.09118566 3.96455826 -12.17260796 2.94709915 -10.25 1.9375 C-8.64898437 1.08478516 -8.64898437 1.08478516 -7.015625 0.21484375 C-3.97406463 -1.01044806 -2.95106435 -1.25348607 0 0 Z " fill="#BACBDB" transform="translate(303,164)"/>
<path d="M0 0 C0.99 0.66 1.98 1.32 3 2 C2.01 2.66 1.02 3.32 0 4 C-0.47647692 6.29661364 -0.47647692 6.29661364 -0.43237305 9.00048828 C-0.45216721 10.04141632 -0.47196136 11.08234436 -0.49235535 12.15481567 C-0.49874527 13.28192963 -0.50513519 14.40904358 -0.51171875 15.5703125 C-0.52966995 16.72167694 -0.54762115 17.87304138 -0.56611633 19.05929565 C-0.6204316 22.74782616 -0.65418359 26.43622573 -0.6875 30.125 C-0.72065427 32.62111206 -0.75514213 35.11720679 -0.79101562 37.61328125 C-0.87617017 43.74207008 -0.94442986 49.87087543 -1 56 C-1.33 56 -1.66 56 -2 56 C-2 37.85 -2 19.7 -2 1 C-1.34 0.67 -0.68 0.34 0 0 Z " fill="#BCD6E8" transform="translate(206,264)"/>
<path d="M0 0 C0.33 1.98 0.66 3.96 1 6 C-0.65 7.32 -2.3 8.64 -4 10 C-4.33 9.34 -4.66 8.68 -5 8 C-3.5625 5.375 -3.5625 5.375 -2 3 C-4.97 2.505 -4.97 2.505 -8 2 C-8.33 2.99 -8.66 3.98 -9 5 C-9.99 5.33 -10.98 5.66 -12 6 C-12.66 6.66 -13.32 7.32 -14 8 C-14.99 7.34 -15.98 6.68 -17 6 C-15.39805929 5.01719585 -13.79336258 4.03888283 -12.1875 3.0625 C-11.29417969 2.51722656 -10.40085938 1.97195312 -9.48046875 1.41015625 C-5.86405592 -0.64578868 -3.93724498 -1.22190362 0 0 Z " fill="#CCD9E4" transform="translate(203,164)"/>
<path d="M0 0 C-1.5056807 3.83264178 -3.76831262 5.537762 -7 8 C-8.35147138 9.31494512 -9.69112542 10.64264858 -11 12 C-11.66 11.67 -12.32 11.34 -13 11 C-13.625 8.9375 -13.625 8.9375 -14 7 C-12.04480616 5.82807953 -10.0857461 4.6626071 -8.125 3.5 C-7.03445312 2.8503125 -5.94390625 2.200625 -4.8203125 1.53125 C-2 0 -2 0 0 0 Z " fill="#D2DAE1" transform="translate(134,240)"/>
<path d="M0 0 C1.32 0.33 2.64 0.66 4 1 C4.75 2.75 4.75 2.75 5 5 C1.93673356 9.31642089 -3.29318301 11.78288929 -8 14 C-8.66 14 -9.32 14 -10 14 C-9.67 13.01 -9.34 12.02 -9 11 C-7.35 10.67 -5.7 10.34 -4 10 C-4 9.34 -4 8.68 -4 8 C-2.35 7.34 -0.7 6.68 1 6 C0.67 4.02 0.34 2.04 0 0 Z " fill="#D5E5F3" transform="translate(150,251)"/>
<path d="M0 0 C7.23549488 0.68259386 7.23549488 0.68259386 10 4 C10.99 4.33 11.98 4.66 13 5 C13 5.66 13 6.32 13 7 C13.99 6.67 14.98 6.34 16 6 C16.33 7.32 16.66 8.64 17 10 C12.56473186 8.69047721 9.00013681 6.95266332 5.125 4.4375 C4.15820312 3.81746094 3.19140625 3.19742188 2.1953125 2.55859375 C1.47085938 2.04425781 0.74640625 1.52992188 0 1 C0 0.67 0 0.34 0 0 Z " fill="#DFE9F3" transform="translate(215,163)"/>
<path d="M0 0 C2.31 0 4.62 0 7 0 C7.66 1.32 8.32 2.64 9 4 C10.32 4 11.64 4 13 4 C13.33 5.32 13.66 6.64 14 8 C9.38 5.69 4.76 3.38 0 1 C0 0.67 0 0.34 0 0 Z " fill="#BAC6CF" transform="translate(371,254)"/>
<path d="M0 0 C-0.33 0.99 -0.66 1.98 -1 3 C-1.5775 3.12375 -2.155 3.2475 -2.75 3.375 C-6.06910681 4.29697411 -7.70889648 6.51797119 -10 9 C-11.32 8.34 -12.64 7.68 -14 7 C-12.04480616 5.82807953 -10.0857461 4.6626071 -8.125 3.5 C-7.03445312 2.8503125 -5.94390625 2.200625 -4.8203125 1.53125 C-2 0 -2 0 0 0 Z " fill="#BCCEE2" transform="translate(177,331)"/>
<path d="M0 0 C0 0.66 0 1.32 0 2 C-1.98 2.66 -3.96 3.32 -6 4 C-6 4.66 -6 5.32 -6 6 C-8 7.625 -8 7.625 -10 9 C-11.32 8.34 -12.64 7.68 -14 7 C-12.04480616 5.82807953 -10.0857461 4.6626071 -8.125 3.5 C-7.03445312 2.8503125 -5.94390625 2.200625 -4.8203125 1.53125 C-2 0 -2 0 0 0 Z " fill="#AAC6CE" transform="translate(232,260)"/>
<path d="M0 0 C5.31027254 1.46032495 9.46330032 3.98320986 14 7 C10.23375329 8.25541557 8.62811066 7.37061958 5 6 C5 5.34 5 4.68 5 4 C4.360625 3.896875 3.72125 3.79375 3.0625 3.6875 C2.381875 3.460625 1.70125 3.23375 1 3 C0.67 2.01 0.34 1.02 0 0 Z " fill="#A8B7C0" transform="translate(266,240)"/>
<path d="M0 0 C0.66386719 0.40992188 1.32773438 0.81984375 2.01171875 1.2421875 C2.89472656 1.78101563 3.77773437 2.31984375 4.6875 2.875 C5.55761719 3.40867188 6.42773438 3.94234375 7.32421875 4.4921875 C9.83391082 5.90640814 12.30299069 6.99894789 15 8 C15 8.33 15 8.66 15 9 C12.625 9.125 12.625 9.125 10 9 C9.34 8.34 8.68 7.68 8 7 C6.824375 6.54625 5.64875 6.0925 4.4375 5.625 C3.303125 5.08875 2.16875 4.5525 1 4 C0.28515625 1.8984375 0.28515625 1.8984375 0 0 Z " fill="#C7D9E2" transform="translate(155,233)"/>
<path d="M0 0 C0 0.66 0 1.32 0 2 C-1.98 2.33 -3.96 2.66 -6 3 C-6.33 3.99 -6.66 4.98 -7 6 C-7.99 6.33 -8.98 6.66 -10 7 C-10.66 7.66 -11.32 8.32 -12 9 C-12.99 8.34 -13.98 7.68 -15 7 C-13.39805929 6.01719585 -11.79336258 5.03888283 -10.1875 4.0625 C-9.29417969 3.51722656 -8.40085938 2.97195312 -7.48046875 2.41015625 C-4.94665163 0.96967124 -2.94655953 0 0 0 Z " fill="#B7C6D6" transform="translate(201,163)"/>
<path d="M0 0 C0.66 0.33 1.32 0.66 2 1 C-2.52084209 5.49335977 -5.54972485 7.73672346 -12 8 C-9.72254211 5.51017465 -7.37664762 3.89631003 -4.4375 2.25 C-3.65246094 1.80140625 -2.86742187 1.3528125 -2.05859375 0.890625 C-1.37925781 0.59671875 -0.69992188 0.3028125 0 0 Z " fill="#BED2E2" transform="translate(167,162)"/>
<path d="M0 0 C5.625 -0.25 5.625 -0.25 9 2 C9 2.66 9 3.32 9 4 C10.65 4.33 12.3 4.66 14 5 C13.67 5.99 13.34 6.98 13 8 C11.39528272 7.04258894 9.79124671 6.08403595 8.1875 5.125 C7.29417969 4.59132813 6.40085938 4.05765625 5.48046875 3.5078125 C3.62705276 2.38116908 1.80470083 1.20313389 0 0 Z " fill="#B1CBD4" transform="translate(198,328)"/>
<path d="M0 0 C0.66 0.33 1.32 0.66 2 1 C-1.39755422 4.79726648 -3.97801617 6.88400359 -9 8 C-9.66 7.67 -10.32 7.34 -11 7 C-9.21475351 5.80286983 -7.4215972 4.61752721 -5.625 3.4375 C-4.62726563 2.77621094 -3.62953125 2.11492187 -2.6015625 1.43359375 C-1.74304688 0.96050781 -0.88453125 0.48742187 0 0 Z " fill="#B5C8D0" transform="translate(326,262)"/>
<path d="M0 0 C0.33 0.99 0.66 1.98 1 3 C-1.64738916 4.4606285 -2.89448334 5 -6 5 C-6.33 5.99 -6.66 6.98 -7 8 C-7.99 7.67 -8.98 7.34 -10 7 C-7.2180632 3.72713318 -3.72045933 2.03572303 0 0 Z " fill="#9DB2BC" transform="translate(359,340)"/>
<path d="M0 0 C0.99 0.66 1.98 1.32 3 2 C1.21475351 3.19713017 -0.5784028 4.38247279 -2.375 5.5625 C-3.87160156 6.55443359 -3.87160156 6.55443359 -5.3984375 7.56640625 C-6.25695312 8.03949219 -7.11546875 8.51257813 -8 9 C-8.66 8.67 -9.32 8.34 -10 8 C-7.56031979 4.34047969 -6.04232679 4.34744226 -2 3 C-1.34 2.01 -0.68 1.02 0 0 Z " fill="#9EB0C8" transform="translate(335,247)"/>
<path d="M0 0 C0.66 0.33 1.32 0.66 2 1 C1.0409375 2.11375 1.0409375 2.11375 0.0625 3.25 C-1.78333407 5.7111121 -2.56069174 7.03466926 -3 10 C-3.66 10 -4.32 10 -5 10 C-4.50769231 3.47692308 -4.50769231 3.47692308 -1.9375 1.0625 C-0.9784375 0.5365625 -0.9784375 0.5365625 0 0 Z " fill="#A6BDC3" transform="translate(166,181)"/>
<path d="M0 0 C-3.19668988 2.6486859 -6.39486597 4.93992341 -10 7 C-9.02640613 3.72518425 -8.30933359 2.23794891 -5.5625 0.125 C-3 -1 -3 -1 0 0 Z " fill="#AEBFC2" transform="translate(271,181)"/>
<path d="M0 0 C0.66 0.33 1.32 0.66 2 1 C1 4 1 4 -1.3125 5.25 C-4.16597407 6.04631835 -5.24802325 5.8214856 -8 5 C-6.71475739 4.13619741 -5.42157581 3.28419631 -4.125 2.4375 C-3.04605469 1.72400391 -3.04605469 1.72400391 -1.9453125 0.99609375 C-1.30335938 0.66738281 -0.66140625 0.33867187 0 0 Z " fill="#96ADBB" transform="translate(390,322)"/>
<path d="M0 0 C4.30764815 1.56641751 8.06171464 3.68336156 12 6 C12 6.66 12 7.32 12 8 C6.78897849 6.88335253 3.59335309 4.97835521 0 1 C0 0.67 0 0.34 0 0 Z " fill="#BFD3DB" transform="translate(185,251)"/>
<path d="M0 0 C-0.625 1.875 -0.625 1.875 -2 4 C-5.125 5.25 -5.125 5.25 -8 6 C-8 5.01 -8 4.02 -8 3 C-2.25 0 -2.25 0 0 0 Z " fill="#AEBAC4" transform="translate(294,321)"/>
<path d="M0 0 C0.66 0.66 1.32 1.32 2 2 C0.71389765 4.5722047 -0.33393981 5.00974907 -3 6 C-5.25 5.625 -5.25 5.625 -7 5 C-2.25 1.125 -2.25 1.125 0 0 Z " fill="#DEEBF1" transform="translate(248,250)"/>
<path d="M0 0 C2.9375 1.25 2.9375 1.25 6 3 C6.875 5.1875 6.875 5.1875 7 7 C5.02 6.34 3.04 5.68 1 5 C0.67 3.35 0.34 1.7 0 0 Z " fill="#C7D4D7" transform="translate(343,342)"/>
<path d="M0 0 C1.32 0.33 2.64 0.66 4 1 C0.04 2.98 -3.92 4.96 -8 7 C-8 6.34 -8 5.68 -8 5 C-6.03852126 3.61061923 -4.03833424 2.2739589 -2 1 C-1.34 1.33 -0.68 1.66 0 2 C0 1.34 0 0.68 0 0 Z " fill="#A1BED1" transform="translate(184,335)"/>
<path d="M0 0 C0 0.99 0 1.98 0 3 C-2.31 3.66 -4.62 4.32 -7 5 C-7 4.01 -7 3.02 -7 2 C-4 0 -4 0 0 0 Z " fill="#D7E4EF" transform="translate(277,332)"/>
<path d="M0 0 C2.625 0.9375 2.625 0.9375 5 2 C2.08596738 3.94268841 -0.85808576 5.46395304 -4 7 C-3.39816251 4.97954558 -2.72693904 2.97888961 -2 1 C-1.34 0.67 -0.68 0.34 0 0 Z " fill="#B3C1CA" transform="translate(296,326)"/>
<path d="M0 0 C0.33 0.66 0.66 1.32 1 2 C1.66 2 2.32 2 3 2 C3 2.66 3 3.32 3 4 C4.65 4.33 6.3 4.66 8 5 C8 5.66 8 6.32 8 7 C3.49197399 5.74194623 0.5087188 4.09592835 -3 1 C-2.01 0.67 -1.02 0.34 0 0 Z " fill="#A4BFCC" transform="translate(235,172)"/>
<path d="M0 0 C3.96 0 7.92 0 12 0 C8 3 8 3 4.875 2.8125 C2 2 2 2 0 0 Z " fill="#9CADE0" transform="translate(344,354)"/>
<path d="M0 0 C1.32 0.33 2.64 0.66 4 1 C1.14693203 3.32472205 -1.54074837 4.7508258 -5 6 C-5 5.01 -5 4.02 -5 3 C-3.35 2.67 -1.7 2.34 0 2 C0 1.34 0 0.68 0 0 Z " fill="#ACBDD3" transform="translate(226,271)"/>
<path d="M0 0 C-3.19990508 2.74277578 -6.00499382 4.6302836 -10 6 C-10 5.01 -10 4.02 -10 3 C-9.01 3 -8.02 3 -7 3 C-7 2.34 -7 1.68 -7 1 C-4.53721199 -0.231394 -2.7204945 -0.07159196 0 0 Z " fill="#A1B6D0" transform="translate(138,267)"/>
<path d="M0 0 C1.31823302 0.59155331 2.62947051 1.19871463 3.9375 1.8125 C5.03384766 2.31716797 5.03384766 2.31716797 6.15234375 2.83203125 C8 4 8 4 9 7 C7.68 7 6.36 7 5 7 C4.67 6.01 4.34 5.02 4 4 C1.98491642 3.26676204 1.98491642 3.26676204 0 3 C0 2.01 0 1.02 0 0 Z " fill="#C5D4ED" transform="translate(289,253)"/>
<path d="M0 0 C1.65 0 3.3 0 5 0 C5 0.66 5 1.32 5 2 C5.99 1.67 6.98 1.34 8 1 C8.33 2.32 8.66 3.64 9 5 C5.22454612 3.90931332 2.52956528 3.0916909 0 0 Z " fill="#BBC7E3" transform="translate(223,168)"/>
<path d="M0 0 C0.99 0.33 1.98 0.66 3 1 C3.33 1.99 3.66 2.98 4 4 C6.00016466 5.20882096 6.00016466 5.20882096 8 6 C5.125 6.125 5.125 6.125 2 6 C1.34 5.34 0.68 4.68 0 4 C0 2.68 0 1.36 0 0 Z " fill="#B0C5D4" transform="translate(161,225)"/>
<path d="M0 0 C0.804375 0.495 0.804375 0.495 1.625 1 C4.5391061 2.22699204 6.86867708 2.14233286 10 2 C9.01 3.485 9.01 3.485 8 5 C4.875 5.1875 4.875 5.1875 2 5 C2 4.01 2 3.02 2 2 C1.34 2 0.68 2 0 2 C0 1.34 0 0.68 0 0 Z " fill="#BCD2E0" transform="translate(243,169)"/>
<path d="M0 0 C2.05078125 0.03255208 4.1015625 0.06510417 6.15234375 0.09765625 C5.82234375 0.75765625 5.49234375 1.41765625 5.15234375 2.09765625 C2.21484375 2.84765625 2.21484375 2.84765625 -0.84765625 3.09765625 C-1.50765625 2.43765625 -2.16765625 1.77765625 -2.84765625 1.09765625 C-1.84765625 0.09765625 -1.84765625 0.09765625 0 0 Z " fill="#9EB7CA" transform="translate(248.84765625,353.90234375)"/>
<path d="M0 0 C1.32 0 2.64 0 4 0 C4 0.66 4 1.32 4 2 C4.99 1.67 5.98 1.34 7 1 C7.99 1.99 8.98 2.98 10 4 C7 5 7 5 5.17578125 4.22265625 C3.45052083 3.1484375 1.72526042 2.07421875 0 1 C0 0.67 0 0.34 0 0 Z " fill="#B1C2CC" transform="translate(166,251)"/>
<path d="M0 0 C1.32 0.33 2.64 0.66 4 1 C4.625 2.875 4.625 2.875 5 5 C4.34 5.66 3.68 6.32 3 7 C0 2.25 0 2.25 0 0 Z " fill="#A6BCE1" transform="translate(150,251)"/>
<path d="M0 0 C0.804375 0.495 0.804375 0.495 1.625 1 C4.5391061 2.22699204 6.86867708 2.14233286 10 2 C10 2.66 10 3.32 10 4 C7.03 4 4.06 4 1 4 C0.67 2.68 0.34 1.36 0 0 Z " fill="#8695B3" transform="translate(243,342)"/>
<path d="M0 0 C3.375 0.25 3.375 0.25 7 1 C8.4375 3.0625 8.4375 3.0625 9 5 C5.22454612 3.90931332 2.52956528 3.0916909 0 0 Z " fill="#96A5D9" transform="translate(330,172)"/>
<path d="M0 0 C0.639375 0.2475 1.27875 0.495 1.9375 0.75 C2.2675 1.74 2.5975 2.73 2.9375 3.75 C-1.8125 3 -1.8125 3 -4.0625 0.75 C-2.0625 -0.25 -2.0625 -0.25 0 0 Z " fill="#A9B4E9" transform="translate(148.0625,353.25)"/>
<path d="M0 0 C0.99 0.99 1.98 1.98 3 3 C2 4 2 4 -0.5625 4.0625 C-1.7690625 4.0315625 -1.7690625 4.0315625 -3 4 C-3 3.01 -3 2.02 -3 1 C-2.01 0.67 -1.02 0.34 0 0 Z " fill="#DAECEE" transform="translate(317,314)"/>
<path d="M0 0 C2 3 2 3 2 5 C-0.31 5.33 -2.62 5.66 -5 6 C-3.625 4.5 -3.625 4.5 -2 3 C-1.34 3 -0.68 3 0 3 C0 2.01 0 1.02 0 0 Z " fill="#E3EEF1" transform="translate(151,254)"/>
<path d="M0 0 C0.33 0 0.66 0 1 0 C0.67 2.31 0.34 4.62 0 7 C-1.32 7.33 -2.64 7.66 -4 8 C-4 7.01 -4 6.02 -4 5 C-3.01 5.33 -2.02 5.66 -1 6 C-0.67 4.02 -0.34 2.04 0 0 Z " fill="#98AEBD" transform="translate(253,252)"/>
<path d="M0 0 C0.33 0.99 0.66 1.98 1 3 C-1.64 3.33 -4.28 3.66 -7 4 C-4.82575883 1.49962266 -3.26954202 0.56371414 0 0 Z " fill="#B1BEE2" transform="translate(349,250)"/>
<path d="M0 0 C1.98 0 3.96 0 6 0 C3.64722731 2.72426311 1.37503669 3.8141763 -2 5 C-1.34 3.35 -0.68 1.7 0 0 Z " fill="#9AA7C0" transform="translate(227,251)"/>
<path d="M0 0 C-1 3 -1 3 -2.8125 4.25 C-5.33943414 5.11637742 -6.52221994 4.88492145 -9 4 C-2.25 0 -2.25 0 0 0 Z " fill="#BBCFDE" transform="translate(318,249)"/>
</svg>
