<svg width="160" height="48" viewBox="0 0 160 48" fill="none" xmlns="http://www.w3.org/2000/svg">
  <rect width="160" height="48" rx="12" fill="#000000"/>
  <path d="M24.769 20.3a6.593 6.593 0 0 1 3.14-5.532 6.734 6.734 0 0 0-5.307-2.87c-2.236-.235-4.348 1.322-5.478 1.322-1.151 0-2.896-1.302-4.763-1.264a7.066 7.066 0 0 0-5.946 3.625c-2.573 4.44-.658 10.982 1.815 14.573 1.235 1.761 2.705 3.737 4.652 3.666 1.89-.077 2.607-1.231 4.896-1.231 2.268 0 2.944 1.231 4.896 1.174 2.03-.057 3.32-1.8 4.554-3.594 1.418-2.08 2.007-4.084 2.03-4.177-.043-.018-3.896-1.512-3.939-5.991z" fill="white"/>
  <path d="M22.037 12.21a6.522 6.522 0 0 0 1.508-4.61 6.61 6.61 0 0 0-4.273 2.212 6.213 6.213 0 0 0-1.548 4.455c1.789.139 3.61-.912 4.313-2.057z" fill="white"/>
  <text x="40" y="15" fill="white" font-family="SF Pro Display, -apple-system, BlinkMacSystemFont, sans-serif" font-size="9" font-weight="400">Download on the</text>
  <text x="40" y="32" fill="white" font-family="SF Pro Display, -apple-system, BlinkMacSystemFont, sans-serif" font-size="18" font-weight="600">App Store</text>
</svg>