<svg width="120" height="40" viewBox="0 0 120 40" fill="none" xmlns="http://www.w3.org/2000/svg">
  <rect width="120" height="40" rx="5" fill="black"/>
  <g clip-path="url(#clip0)">
    <path d="M24.769 20.3006C24.7468 17.9013 26.5835 16.7481 26.6729 16.6906C25.5742 15.0803 23.8736 14.8594 23.2479 14.8406C21.7292 14.6841 20.2559 15.7522 19.484 15.7522C18.6972 15.7522 17.4848 14.8556 16.1917 14.8819C14.5355 14.9094 12.9911 15.8647 12.1442 17.3272C10.4023 20.3044 11.6873 24.6666 13.3647 27.0722C14.2036 28.2516 15.1924 29.5759 16.4842 29.5297C17.7498 29.4797 18.2204 28.7384 19.7473 28.7384C21.2592 28.7384 21.7023 29.5297 23.0217 29.4984C24.3786 29.4797 25.2386 28.3103 26.0474 27.1222C27.0249 25.7666 27.4192 24.4347 27.4342 24.3634C27.4042 24.3509 24.7955 23.3619 24.769 20.3006Z" fill="white"/>
    <path d="M22.0372 13.1797C22.7242 12.3334 23.1898 11.1828 23.0467 10.0172C22.0485 10.0584 20.8174 10.6903 20.1042 11.5191C19.4748 12.2441 18.9155 13.4272 19.0736 14.5528C20.2035 14.6428 21.3498 14.0259 22.0372 13.1797Z" fill="white"/>
  </g>
  <text x="38" y="14" font-family="Arial, sans-serif" font-size="9" fill="white" font-weight="400">Download on the</text>
  <text x="38" y="26" font-family="Arial, sans-serif" font-size="14" fill="white" font-weight="600">App Store</text>
  <defs>
    <clipPath id="clip0">
      <rect width="18" height="20" fill="white" transform="translate(10 10)"/>
    </clipPath>
  </defs>
</svg>