<svg width="135" height="40" viewBox="0 0 135 40" fill="none" xmlns="http://www.w3.org/2000/svg">
  <rect width="135" height="40" rx="5" fill="black"/>
  <g clip-path="url(#clip0)">
    <path d="M13.0967 10.1094C12.8467 10.3594 12.7217 10.7844 12.7217 11.3844V28.6094C12.7217 29.2094 12.8467 29.6344 13.0967 29.8844L13.1717 29.9594L22.4717 20.6594V20.3344L13.1717 11.0344L13.0967 10.1094Z" fill="url(#paint0_linear)"/>
    <path d="M25.5717 23.7594L22.4717 20.6594V20.3344L25.5717 17.2344L25.6717 17.2844L29.2967 19.3594C30.3467 19.9594 30.3467 21.0344 29.2967 21.6344L25.6717 23.7094L25.5717 23.7594Z" fill="url(#paint1_linear)"/>
    <path d="M25.6717 23.7094L22.4717 20.4969L13.0967 29.8844C13.4717 30.2594 14.0467 30.3094 14.6967 29.9844L25.6717 23.7094Z" fill="url(#paint2_linear)"/>
    <path d="M25.6717 17.2844L14.6967 11.0094C14.0467 10.6844 13.4717 10.7344 13.0967 11.1094L22.4717 20.4969L25.6717 17.2844Z" fill="url(#paint3_linear)"/>
  </g>
  <text x="42" y="14" font-family="Arial, sans-serif" font-size="9" fill="white" font-weight="400">GET IT ON</text>
  <text x="42" y="26" font-family="Arial, sans-serif" font-size="14" fill="white" font-weight="600">Google Play</text>
  <defs>
    <linearGradient id="paint0_linear" x1="21.7967" y1="11.2219" x2="5.04669" y2="27.9719" gradientUnits="userSpaceOnUse">
      <stop stop-color="#00A0FF"/>
      <stop offset="0.0066" stop-color="#00A1FF"/>
      <stop offset="0.2601" stop-color="#00BEFF"/>
      <stop offset="0.5122" stop-color="#00D2FF"/>
      <stop offset="0.7604" stop-color="#00DFFF"/>
      <stop offset="1" stop-color="#00E3FF"/>
    </linearGradient>
    <linearGradient id="paint1_linear" x1="30.9717" y1="20.4969" x2="12.4717" y2="20.4969" gradientUnits="userSpaceOnUse">
      <stop stop-color="#FFE000"/>
      <stop offset="0.4087" stop-color="#FFBD00"/>
      <stop offset="0.7754" stop-color="#FFA500"/>
      <stop offset="1" stop-color="#FF9C00"/>
    </linearGradient>
    <linearGradient id="paint2_linear" x1="24.2217" y1="22.1469" x2="9.74669" y2="36.6219" gradientUnits="userSpaceOnUse">
      <stop stop-color="#FF3A44"/>
      <stop offset="1" stop-color="#C31162"/>
    </linearGradient>
    <linearGradient id="paint3_linear" x1="10.5967" y1="3.87188" x2="18.3467" y2="11.6219" gradientUnits="userSpaceOnUse">
      <stop stop-color="#32A071"/>
      <stop offset="0.0685" stop-color="#2DA771"/>
      <stop offset="0.4762" stop-color="#15CF74"/>
      <stop offset="0.8009" stop-color="#06E775"/>
      <stop offset="1" stop-color="#00F076"/>
    </linearGradient>
    <clipPath id="clip0">
      <rect width="18" height="20" fill="white" transform="translate(12 10)"/>
    </clipPath>
  </defs>
</svg>